<?xml version="1.0" encoding="utf-8"?>
<!-- Generator: Adobe Illustrator 23.0.4, SVG Export Plug-In . SVG Version: 6.00 Build 0)  -->
<svg version="1.1" xmlns="http://www.w3.org/2000/svg" xmlns:xlink="http://www.w3.org/1999/xlink" x="0px" y="0px"
	 viewBox="0 0 1408.6 259.7" style="enable-background:new 0 0 1408.6 259.7;" xml:space="preserve">
<style type="text/css">
	.st0{fill:url(#SVGID_1_);}
	.st1{opacity:0.35;}
	.st2{fill:#FFFFFF;}
	.st3{fill:#F0F0F0;}
	.st4{fill:#E1E1E1;}
	.st5{fill:#D2D2D2;}
	.st6{fill:#C4C4C4;}
	.st7{fill:#B5B5B5;}
	.st8{fill:#A6A6A6;}
	.st9{fill:#979797;}
	.st10{fill:#888888;}
	.st11{fill:#797979;}
	.st12{fill:#6A6A6A;}
	.st13{fill:#5B5B5B;}
	.st14{fill:#4D4D4D;}
	.st15{fill:#3E3E3E;}
	.st16{fill:#2F2F2F;}
	.st17{fill:#202020;}
	.st18{fill:#111111;}
	.st19{fill:url(#SVGID_2_);}
	.st20{clip-path:url(#SVGID_4_);}
	.st21{opacity:0.74;fill:url(#SVGID_5_);}
	.st22{opacity:0.74;fill:url(#SVGID_6_);}
	.st23{opacity:0.74;fill:url(#SVGID_7_);}
	.st24{opacity:0.74;fill:url(#SVGID_8_);}
	.st25{opacity:0.74;fill:url(#SVGID_9_);}
	.st26{opacity:0.74;fill:url(#SVGID_10_);}
	.st27{fill:none;stroke:#FFFFFF;stroke-width:2;stroke-linecap:round;stroke-linejoin:round;stroke-miterlimit:10;}
	.st28{clip-path:url(#SVGID_12_);}
	.st29{clip-path:url(#SVGID_14_);}
	.st30{clip-path:url(#SVGID_16_);}
	.st31{fill:none;stroke:#FFFFFF;stroke-linecap:round;stroke-linejoin:round;stroke-miterlimit:10;}
	.st32{opacity:0.1;fill:url(#SVGID_17_);}
	.st33{opacity:0.1;fill:url(#SVGID_18_);}
	.st34{opacity:0.1;fill:url(#SVGID_19_);}
	.st35{opacity:0.1;fill:url(#SVGID_20_);}
	.st36{opacity:0.1;fill:url(#SVGID_21_);}
	.st37{fill:#F8FAFB;}
</style>
<g id="BACKGROUND">
	<radialGradient id="SVGID_1_" cx="814.1756" cy="-580.2054" r="499.3614" gradientUnits="userSpaceOnUse">
		<stop  offset="0" style="stop-color:#670C94"/>
		<stop  offset="1" style="stop-color:#430065"/>
	</radialGradient>
	<rect x="424.6" y="-1079.2" class="st0" width="750" height="500"/>
	<g id="Shadow" class="st1">
		<path class="st2" d="M511.1-664.6v-331.1c0-10.8,8.8-19.6,19.6-17.6h537.9c10.8-2,19.6,6.8,19.6,17.6v331.1
			c0,10.8-8.8,19.6-19.6,19.6H530.8C519.9-645,511.1-653.8,511.1-664.6z"/>
		<path class="st3" d="M510.9-664.6v-331.9c0-10.4,8.4-18.8,18.8-16.9h539.1c10.4-1.9,18.8,6.5,18.8,16.9v331.9
			c0,10.4-8.4,18.8-18.8,18.8H529.7C519.3-645.8,510.9-654.2,510.9-664.6z"/>
		<path class="st4" d="M510.7-664.5v-332.7c0-9.9,8-18,18-16.2H1069c9.9-1.8,18,6.3,18,16.2v332.7c0,9.9-8,18-18,18H528.7
			C518.8-646.5,510.7-654.6,510.7-664.5z"/>
		<path class="st5" d="M510.5-664.5v-333.5c0-9.5,7.7-17.1,17.1-15.5h541.5c9.5-1.6,17.1,6,17.1,15.5v333.5
			c0,9.5-7.7,17.1-17.1,17.1H527.7C518.2-647.3,510.5-655,510.5-664.5z"/>
		<path class="st6" d="M510.3-664.4v-334.2c0-9,7.3-16.3,16.3-14.8h542.7c9-1.5,16.3,5.8,16.3,14.8v334.2c0,9-7.3,16.3-16.3,16.3
			H526.6C517.6-648.1,510.3-655.4,510.3-664.4z"/>
		<path class="st7" d="M510.1-664.3v-335c0-8.5,6.9-15.5,15.5-14.1h543.9c8.5-1.4,15.5,5.6,15.5,14.1v335c0,8.5-6.9,15.5-15.5,15.5
			H525.6C517.1-648.9,510.1-655.8,510.1-664.3z"/>
		<path class="st8" d="M510-664.3v-335.8c0-8.1,6.6-14.6,14.6-13.4h545.2c8.1-1.2,14.6,5.3,14.6,13.4v335.8
			c0,8.1-6.6,14.6-14.6,14.6H524.6C516.5-649.6,510-656.2,510-664.3z"/>
		<path class="st9" d="M509.8-664.2v-336.6c0-7.6,6.2-13.8,13.8-12.7h546.4c7.6-1.1,13.8,5.1,13.8,12.7v336.6
			c0,7.6-6.2,13.8-13.8,13.8H523.6C515.9-650.4,509.8-656.6,509.8-664.2z"/>
		<path class="st10" d="M509.6-664.1v-337.4c0-7.2,5.8-13,13-12h547.6c7.2-1,13,4.8,13,12v337.4c0,7.2-5.8,13-13,13H522.5
			C515.4-651.2,509.6-657,509.6-664.1z"/>
		<path class="st11" d="M509.4-664.1v-338.1c0-6.7,5.4-12.1,12.1-11.3h548.8c6.7-0.9,12.1,4.6,12.1,11.3v338.1
			c0,6.7-5.4,12.1-12.1,12.1H521.5C514.8-651.9,509.4-657.4,509.4-664.1z"/>
		<path class="st12" d="M509.2-664v-338.9c0-6.2,5.1-11.3,11.3-10.5h550c6.2-0.8,11.3,4.3,11.3,10.5V-664c0,6.2-5.1,11.3-11.3,11.3
			h-550C514.2-652.7,509.2-657.8,509.2-664z"/>
		<path class="st13" d="M509-664v-339.7c0-5.8,4.7-10.5,10.5-9.8h551.2c5.8-0.6,10.5,4.1,10.5,9.8V-664c0,5.8-4.7,10.5-10.5,10.5
			H519.5C513.7-653.5,509-658.2,509-664z"/>
		<path class="st14" d="M508.8-663.9v-340.5c0-5.3,4.3-9.6,9.6-9.1h552.5c5.3-0.5,9.6,3.8,9.6,9.1v340.5c0,5.3-4.3,9.6-9.6,9.6
			H518.4C513.1-654.3,508.8-658.6,508.8-663.9z"/>
		<path class="st15" d="M508.6-663.8v-341.3c0-4.9,3.9-8.8,8.8-8.4h553.7c4.9-0.4,8.8,3.6,8.8,8.4v341.3c0,4.9-3.9,8.8-8.8,8.8
			H517.4C512.5-655,508.6-659,508.6-663.8z"/>
		<path class="st16" d="M508.4-663.8v-342c0-4.4,3.6-8,8-7.7h554.9c4.4-0.2,8,3.3,8,7.7v342c0,4.4-3.6,8-8,8H516.4
			C512-655.8,508.4-659.4,508.4-663.8z"/>
		<path class="st17" d="M508.2-663.7v-342.8c0-3.9,3.2-7.1,7.1-7h556.1c3.9-0.1,7.1,3.1,7.1,7v342.8c0,3.9-3.2,7.1-7.1,7.1H515.3
			C511.4-656.6,508.2-659.8,508.2-663.7z"/>
		<path class="st18" d="M1071.6-657.4H514.3c-3.5,0-6.3-2.8-6.3-6.3v-343.6c0-3.5,2.8-6.3,6.3-6.3h557.3c3.5,0,6.3,2.8,6.3,6.3
			v343.6C1077.9-660.2,1075.1-657.4,1071.6-657.4z"/>
	</g>
</g>
<g id="OBJECTS">
	<linearGradient id="SVGID_2_" gradientUnits="userSpaceOnUse" x1="792.9708" y1="-1005.2056" x2="792.9708" y2="-659.1826">
		<stop  offset="0" style="stop-color:#2D0066"/>
		<stop  offset="1" style="stop-color:#570997"/>
	</linearGradient>
	<path class="st19" d="M1071.6-657.4H514.3c-3.5,0-6.3-2.8-6.3-6.3v-343.6c0-3.5,2.8-6.3,6.3-6.3h557.3c3.5,0,6.3,2.8,6.3,6.3v343.6
		C1077.9-660.2,1075.1-657.4,1071.6-657.4z"/>
	<g>
		<defs>
			<path id="SVGID_3_" d="M1071.6-657.4H514.3c-3.5,0-6.3-2.8-6.3-6.3v-343.6c0-3.5,2.8-6.3,6.3-6.3h557.3c3.5,0,6.3,2.8,6.3,6.3
				v343.6C1077.9-660.2,1075.1-657.4,1071.6-657.4z"/>
		</defs>
		<clipPath id="SVGID_4_">
			<use xlink:href="#SVGID_3_"  style="overflow:visible;"/>
		</clipPath>
		<g class="st20">
			<linearGradient id="SVGID_5_" gradientUnits="userSpaceOnUse" x1="885.1912" y1="-904.6229" x2="1030.7753" y2="-760.8895">
				<stop  offset="0" style="stop-color:#651FFF"/>
				<stop  offset="1" style="stop-color:#000000"/>
			</linearGradient>
			<path class="st21" d="M1083.1-952c0.7,43.2-8.7,116.2-124.4,124.4C864.1-820.9,802-784,786.7-722.1
				c-13.3,53.6,23.1,138.2,158,134.2c139.1-4.1,182.9-148.2,169.3-201.9c-13.7-53.7,2.8-127.4,68.5-128.5
				c31.2-0.5,11.5-33.4-19.1-54.9C1129.6-996.9,1082.1-1015.2,1083.1-952z"/>
			<linearGradient id="SVGID_6_" gradientUnits="userSpaceOnUse" x1="911.7321" y1="-883.189" x2="942.2093" y2="-1010.5164">
				<stop  offset="0" style="stop-color:#4064FF"/>
				<stop  offset="1" style="stop-color:#000000"/>
			</linearGradient>
			<path class="st22" d="M812.7-1106.3c-23.7,32.3-32.9,155.1,55.1,198.4c88,43.3,207.2,3.7,227.6-85.3s-56.2-23-108.4-77.2
				C934.9-1124.6,858.5-1168.6,812.7-1106.3z"/>
			<linearGradient id="SVGID_7_" gradientUnits="userSpaceOnUse" x1="792.02" y1="-861.8785" x2="1136.6724" y2="-852.8483">
				<stop  offset="0" style="stop-color:#4064FF"/>
				<stop  offset="1" style="stop-color:#000000"/>
			</linearGradient>
			<path class="st23" d="M902.5-1053.5c-13.7,41.1,45.3,86-23.3,150.7c-43.9,41.4-79.4,116-16.5,198s163.5,97.3,282.5,74.3
				s-71-93-21-216s2.3-187-78.8-222S917.8-1099.5,902.5-1053.5z"/>
			<linearGradient id="SVGID_8_" gradientUnits="userSpaceOnUse" x1="908.9075" y1="-793.0903" x2="914.9075" y2="-614.0901">
				<stop  offset="0" style="stop-color:#D500F9"/>
				<stop  offset="1" style="stop-color:#000000"/>
			</linearGradient>
			<path class="st24" d="M1156.2-777.3c-56.4-8.6-94.1,139.3-265.5,51.6c-105.3-53.8-185.3-22.9-230.9,13
				c-65.6,51.5-104.4,151.3-80.2,255.2c24.2,103.9,174.7-57.7,241.5-116.1c66.8-58.5,216.5-21.6,280-13
				c28.4,3.9,102.3,17.2,131.5-20.6C1304-699.9,1213-768.7,1156.2-777.3z"/>
			<linearGradient id="SVGID_9_" gradientUnits="userSpaceOnUse" x1="633.895" y1="-725.7874" x2="636.5618" y2="-635.7874">
				<stop  offset="0" style="stop-color:#448AFF"/>
				<stop  offset="1" style="stop-color:#000000"/>
			</linearGradient>
			<path class="st25" d="M486.2-692.8c38.8-25.2,120.7-36.7,202-12c81.3,24.7,144.4,84,163.2,159.3c18.8,75.3-133.2-74.7-209.9-4.7
				s-210,48.7-216.7-27.5C421.2-620.2,457.6-674.2,486.2-692.8z"/>
			<linearGradient id="SVGID_10_" gradientUnits="userSpaceOnUse" x1="896.299" y1="-801.1899" x2="927.2989" y2="-1049.1902">
				<stop  offset="0" style="stop-color:#D500F9"/>
				<stop  offset="1" style="stop-color:#000000"/>
			</linearGradient>
			<path class="st26" d="M692.2-1068.2c8,61,35,191,215,119s236,73,236,73v-182L692.2-1068.2z"/>
		</g>
		<g class="st20">
			<circle class="st27" cx="831.2" cy="-914" r="5.3"/>
			<path class="st27" d="M992.6-905.1c0,2.5-2,4.5-4.5,4.5c-2.5,0-4.5-2-4.5-4.5c0-2.5,2-4.5,4.5-4.5
				C990.6-909.5,992.6-907.5,992.6-905.1z"/>
			<path class="st27" d="M993.4-818.9c0,2.9-2.4,5.3-5.3,5.3c-2.9,0-5.3-2.4-5.3-5.3c0-2.9,2.4-5.3,5.3-5.3
				C991-824.2,993.4-821.8,993.4-818.9z"/>
			<path class="st27" d="M597.8-695.5c0,2.9-2.4,5.3-5.3,5.3c-2.9,0-5.3-2.4-5.3-5.3s2.4-5.3,5.3-5.3
				C595.5-700.9,597.8-698.5,597.8-695.5z"/>
			<circle class="st27" cx="895.2" cy="-695.5" r="5.3"/>
			<path class="st27" d="M864.6-945.1c3.6,0,3.6,5.3,7.2,5.3c3.6,0,3.6-5.3,7.2-5.3c3.6,0,3.6,5.3,7.2,5.3c3.6,0,3.6-5.3,7.2-5.3
				c3.6,0,3.6,5.3,7.2,5.3c3.6,0,3.6-5.3,7.2-5.3c3.6,0,3.6,5.3,7.2,5.3"/>
			<path class="st27" d="M996.9-766.4c3.6,0,3.6,5.3,7.2,5.3c3.6,0,3.6-5.3,7.2-5.3c3.6,0,3.6,5.3,7.2,5.3c3.6,0,3.6-5.3,7.2-5.3
				c3.6,0,3.6,5.3,7.2,5.3c3.6,0,3.6-5.3,7.2-5.3c3.6,0,3.6,5.3,7.2,5.3"/>
			<path class="st27" d="M658.6-685.6c3.6,0,3.6,5.3,7.2,5.3s3.6-5.3,7.2-5.3c3.6,0,3.6,5.3,7.2,5.3c3.6,0,3.6-5.3,7.2-5.3
				c3.6,0,3.6,5.3,7.2,5.3c3.6,0,3.6-5.3,7.2-5.3c3.6,0,3.6,5.3,7.2,5.3"/>
			<g>
				<line class="st27" x1="914.3" y1="-874.2" x2="921.2" y2="-867.4"/>
				<line class="st27" x1="914.3" y1="-867.4" x2="921.2" y2="-874.2"/>
			</g>
			<g>
				<line class="st27" x1="778.2" y1="-954.8" x2="785" y2="-948"/>
				<line class="st27" x1="778.2" y1="-948" x2="785" y2="-954.8"/>
			</g>
			<g>
				<line class="st27" x1="719.2" y1="-722" x2="726" y2="-715.2"/>
				<line class="st27" x1="719.2" y1="-715.2" x2="726" y2="-722"/>
			</g>
			<g>
				<path class="st2" d="M760-724.4c0,1-0.8,1.9-1.9,1.9c-1,0-1.9-0.8-1.9-1.9c0-1,0.8-1.9,1.9-1.9C759.1-726.2,760-725.4,760-724.4
					z"/>
				<path class="st2" d="M770.8-724.4c0,1-0.8,1.9-1.9,1.9c-1,0-1.9-0.8-1.9-1.9c0-1,0.8-1.9,1.9-1.9
					C769.9-726.2,770.8-725.4,770.8-724.4z"/>
				<path class="st2" d="M781.6-724.4c0,1-0.8,1.9-1.9,1.9s-1.9-0.8-1.9-1.9c0-1,0.8-1.9,1.9-1.9S781.6-725.4,781.6-724.4z"/>
				<path class="st2" d="M792.4-724.4c0,1-0.8,1.9-1.9,1.9c-1,0-1.9-0.8-1.9-1.9c0-1,0.8-1.9,1.9-1.9
					C791.6-726.2,792.4-725.4,792.4-724.4z"/>
				<path class="st2" d="M803.2-724.4c0,1-0.8,1.9-1.9,1.9c-1,0-1.9-0.8-1.9-1.9c0-1,0.8-1.9,1.9-1.9
					C802.4-726.2,803.2-725.4,803.2-724.4z"/>
				<path class="st2" d="M814.1-724.4c0,1-0.8,1.9-1.9,1.9c-1,0-1.9-0.8-1.9-1.9c0-1,0.8-1.9,1.9-1.9
					C813.2-726.2,814.1-725.4,814.1-724.4z"/>
				<path class="st2" d="M824.9-724.4c0,1-0.8,1.9-1.9,1.9c-1,0-1.9-0.8-1.9-1.9c0-1,0.8-1.9,1.9-1.9
					C824.1-726.2,824.9-725.4,824.9-724.4z"/>
				<path class="st2" d="M835.7-724.4c0,1-0.8,1.9-1.9,1.9c-1,0-1.9-0.8-1.9-1.9c0-1,0.8-1.9,1.9-1.9
					C834.9-726.2,835.7-725.4,835.7-724.4z"/>
				<path class="st2" d="M760-713.5c0,1-0.8,1.9-1.9,1.9c-1,0-1.9-0.8-1.9-1.9c0-1,0.8-1.9,1.9-1.9C759.1-715.4,760-714.6,760-713.5
					z"/>
				<path class="st2" d="M770.8-713.5c0,1-0.8,1.9-1.9,1.9c-1,0-1.9-0.8-1.9-1.9c0-1,0.8-1.9,1.9-1.9
					C769.9-715.4,770.8-714.6,770.8-713.5z"/>
				<path class="st2" d="M781.6-713.5c0,1-0.8,1.9-1.9,1.9s-1.9-0.8-1.9-1.9c0-1,0.8-1.9,1.9-1.9S781.6-714.6,781.6-713.5z"/>
				<path class="st2" d="M792.4-713.5c0,1-0.8,1.9-1.9,1.9c-1,0-1.9-0.8-1.9-1.9c0-1,0.8-1.9,1.9-1.9
					C791.6-715.4,792.4-714.6,792.4-713.5z"/>
				<path class="st2" d="M803.2-713.5c0,1-0.8,1.9-1.9,1.9c-1,0-1.9-0.8-1.9-1.9c0-1,0.8-1.9,1.9-1.9
					C802.4-715.4,803.2-714.6,803.2-713.5z"/>
				<path class="st2" d="M814.1-713.5c0,1-0.8,1.9-1.9,1.9c-1,0-1.9-0.8-1.9-1.9c0-1,0.8-1.9,1.9-1.9
					C813.2-715.4,814.1-714.6,814.1-713.5z"/>
				<path class="st2" d="M824.9-713.5c0,1-0.8,1.9-1.9,1.9c-1,0-1.9-0.8-1.9-1.9c0-1,0.8-1.9,1.9-1.9
					C824.1-715.4,824.9-714.6,824.9-713.5z"/>
				<path class="st2" d="M835.7-713.5c0,1-0.8,1.9-1.9,1.9c-1,0-1.9-0.8-1.9-1.9c0-1,0.8-1.9,1.9-1.9
					C834.9-715.4,835.7-714.6,835.7-713.5z"/>
				<path class="st2" d="M760-702.7c0,1-0.8,1.9-1.9,1.9c-1,0-1.9-0.8-1.9-1.9c0-1,0.8-1.9,1.9-1.9C759.1-704.6,760-703.7,760-702.7
					z"/>
				<path class="st2" d="M770.8-702.7c0,1-0.8,1.9-1.9,1.9c-1,0-1.9-0.8-1.9-1.9c0-1,0.8-1.9,1.9-1.9
					C769.9-704.6,770.8-703.7,770.8-702.7z"/>
				<path class="st2" d="M781.6-702.7c0,1-0.8,1.9-1.9,1.9s-1.9-0.8-1.9-1.9c0-1,0.8-1.9,1.9-1.9S781.6-703.7,781.6-702.7z"/>
				<path class="st2" d="M792.4-702.7c0,1-0.8,1.9-1.9,1.9c-1,0-1.9-0.8-1.9-1.9c0-1,0.8-1.9,1.9-1.9
					C791.6-704.6,792.4-703.7,792.4-702.7z"/>
				<path class="st2" d="M803.2-702.7c0,1-0.8,1.9-1.9,1.9c-1,0-1.9-0.8-1.9-1.9c0-1,0.8-1.9,1.9-1.9
					C802.4-704.6,803.2-703.7,803.2-702.7z"/>
				<path class="st2" d="M814.1-702.7c0,1-0.8,1.9-1.9,1.9c-1,0-1.9-0.8-1.9-1.9c0-1,0.8-1.9,1.9-1.9
					C813.2-704.6,814.1-703.7,814.1-702.7z"/>
				<path class="st2" d="M824.9-702.7c0,1-0.8,1.9-1.9,1.9c-1,0-1.9-0.8-1.9-1.9c0-1,0.8-1.9,1.9-1.9
					C824.1-704.6,824.9-703.7,824.9-702.7z"/>
				<path class="st2" d="M835.7-702.7c0,1-0.8,1.9-1.9,1.9c-1,0-1.9-0.8-1.9-1.9c0-1,0.8-1.9,1.9-1.9
					C834.9-704.6,835.7-703.7,835.7-702.7z"/>
				<path class="st2" d="M760-691.9c0,1-0.8,1.9-1.9,1.9c-1,0-1.9-0.8-1.9-1.9s0.8-1.9,1.9-1.9C759.1-693.7,760-692.9,760-691.9z"/>
				<path class="st2" d="M770.8-691.9c0,1-0.8,1.9-1.9,1.9c-1,0-1.9-0.8-1.9-1.9s0.8-1.9,1.9-1.9
					C769.9-693.7,770.8-692.9,770.8-691.9z"/>
				<path class="st2" d="M781.6-691.9c0,1-0.8,1.9-1.9,1.9s-1.9-0.8-1.9-1.9s0.8-1.9,1.9-1.9S781.6-692.9,781.6-691.9z"/>
				<path class="st2" d="M792.4-691.9c0,1-0.8,1.9-1.9,1.9c-1,0-1.9-0.8-1.9-1.9s0.8-1.9,1.9-1.9
					C791.6-693.7,792.4-692.9,792.4-691.9z"/>
				<path class="st2" d="M803.2-691.9c0,1-0.8,1.9-1.9,1.9c-1,0-1.9-0.8-1.9-1.9s0.8-1.9,1.9-1.9
					C802.4-693.7,803.2-692.9,803.2-691.9z"/>
				<path class="st2" d="M814.1-691.9c0,1-0.8,1.9-1.9,1.9c-1,0-1.9-0.8-1.9-1.9s0.8-1.9,1.9-1.9
					C813.2-693.7,814.1-692.9,814.1-691.9z"/>
				<path class="st2" d="M824.9-691.9c0,1-0.8,1.9-1.9,1.9c-1,0-1.9-0.8-1.9-1.9s0.8-1.9,1.9-1.9
					C824.1-693.7,824.9-692.9,824.9-691.9z"/>
				<path class="st2" d="M835.7-691.9c0,1-0.8,1.9-1.9,1.9c-1,0-1.9-0.8-1.9-1.9s0.8-1.9,1.9-1.9
					C834.9-693.7,835.7-692.9,835.7-691.9z"/>
				<path class="st2" d="M760-681.1c0,1-0.8,1.9-1.9,1.9c-1,0-1.9-0.8-1.9-1.9c0-1,0.8-1.9,1.9-1.9C759.1-682.9,760-682.1,760-681.1
					z"/>
				<path class="st2" d="M770.8-681.1c0,1-0.8,1.9-1.9,1.9c-1,0-1.9-0.8-1.9-1.9c0-1,0.8-1.9,1.9-1.9
					C769.9-682.9,770.8-682.1,770.8-681.1z"/>
				<path class="st2" d="M781.6-681.1c0,1-0.8,1.9-1.9,1.9s-1.9-0.8-1.9-1.9c0-1,0.8-1.9,1.9-1.9S781.6-682.1,781.6-681.1z"/>
				<path class="st2" d="M792.4-681.1c0,1-0.8,1.9-1.9,1.9c-1,0-1.9-0.8-1.9-1.9c0-1,0.8-1.9,1.9-1.9
					C791.6-682.9,792.4-682.1,792.4-681.1z"/>
				<path class="st2" d="M803.2-681.1c0,1-0.8,1.9-1.9,1.9c-1,0-1.9-0.8-1.9-1.9c0-1,0.8-1.9,1.9-1.9
					C802.4-682.9,803.2-682.1,803.2-681.1z"/>
				<path class="st2" d="M814.1-681.1c0,1-0.8,1.9-1.9,1.9c-1,0-1.9-0.8-1.9-1.9c0-1,0.8-1.9,1.9-1.9
					C813.2-682.9,814.1-682.1,814.1-681.1z"/>
				<path class="st2" d="M824.9-681.1c0,1-0.8,1.9-1.9,1.9c-1,0-1.9-0.8-1.9-1.9c0-1,0.8-1.9,1.9-1.9
					C824.1-682.9,824.9-682.1,824.9-681.1z"/>
				<path class="st2" d="M835.7-681.1c0,1-0.8,1.9-1.9,1.9c-1,0-1.9-0.8-1.9-1.9c0-1,0.8-1.9,1.9-1.9
					C834.9-682.9,835.7-682.1,835.7-681.1z"/>
			</g>
			<g>
				<path class="st2" d="M806.8-886.8c0,1-0.8,1.9-1.9,1.9c-1,0-1.9-0.8-1.9-1.9c0-1,0.8-1.9,1.9-1.9
					C805.9-888.7,806.8-887.9,806.8-886.8z"/>
				<path class="st2" d="M817.6-886.8c0,1-0.8,1.9-1.9,1.9c-1,0-1.9-0.8-1.9-1.9c0-1,0.8-1.9,1.9-1.9
					C816.8-888.7,817.6-887.9,817.6-886.8z"/>
				<path class="st2" d="M828.4-886.8c0,1-0.8,1.9-1.9,1.9c-1,0-1.9-0.8-1.9-1.9c0-1,0.8-1.9,1.9-1.9
					C827.6-888.7,828.4-887.9,828.4-886.8z"/>
				<path class="st2" d="M839.2-886.8c0,1-0.8,1.9-1.9,1.9s-1.9-0.8-1.9-1.9c0-1,0.8-1.9,1.9-1.9S839.2-887.9,839.2-886.8z"/>
				<path class="st2" d="M850.1-886.8c0,1-0.8,1.9-1.9,1.9c-1,0-1.9-0.8-1.9-1.9c0-1,0.8-1.9,1.9-1.9
					C849.2-888.7,850.1-887.9,850.1-886.8z"/>
				<path class="st2" d="M860.9-886.8c0,1-0.8,1.9-1.9,1.9c-1,0-1.9-0.8-1.9-1.9c0-1,0.8-1.9,1.9-1.9
					C860.1-888.7,860.9-887.9,860.9-886.8z"/>
				<path class="st2" d="M806.8-876c0,1-0.8,1.9-1.9,1.9c-1,0-1.9-0.8-1.9-1.9c0-1,0.8-1.9,1.9-1.9C805.9-877.9,806.8-877,806.8-876
					z"/>
				<path class="st2" d="M817.6-876c0,1-0.8,1.9-1.9,1.9c-1,0-1.9-0.8-1.9-1.9c0-1,0.8-1.9,1.9-1.9C816.8-877.9,817.6-877,817.6-876
					z"/>
				<path class="st2" d="M828.4-876c0,1-0.8,1.9-1.9,1.9c-1,0-1.9-0.8-1.9-1.9c0-1,0.8-1.9,1.9-1.9C827.6-877.9,828.4-877,828.4-876
					z"/>
				<path class="st2" d="M839.2-876c0,1-0.8,1.9-1.9,1.9s-1.9-0.8-1.9-1.9c0-1,0.8-1.9,1.9-1.9S839.2-877,839.2-876z"/>
				<path class="st2" d="M850.1-876c0,1-0.8,1.9-1.9,1.9c-1,0-1.9-0.8-1.9-1.9c0-1,0.8-1.9,1.9-1.9C849.2-877.9,850.1-877,850.1-876
					z"/>
				<path class="st2" d="M860.9-876c0,1-0.8,1.9-1.9,1.9c-1,0-1.9-0.8-1.9-1.9c0-1,0.8-1.9,1.9-1.9C860.1-877.9,860.9-877,860.9-876
					z"/>
				<path class="st2" d="M806.8-865.2c0,1-0.8,1.9-1.9,1.9c-1,0-1.9-0.8-1.9-1.9c0-1,0.8-1.9,1.9-1.9
					C805.9-867,806.8-866.2,806.8-865.2z"/>
				<path class="st2" d="M817.6-865.2c0,1-0.8,1.9-1.9,1.9c-1,0-1.9-0.8-1.9-1.9c0-1,0.8-1.9,1.9-1.9
					C816.8-867,817.6-866.2,817.6-865.2z"/>
				<path class="st2" d="M828.4-865.2c0,1-0.8,1.9-1.9,1.9c-1,0-1.9-0.8-1.9-1.9c0-1,0.8-1.9,1.9-1.9
					C827.6-867,828.4-866.2,828.4-865.2z"/>
				<path class="st2" d="M839.2-865.2c0,1-0.8,1.9-1.9,1.9s-1.9-0.8-1.9-1.9c0-1,0.8-1.9,1.9-1.9S839.2-866.2,839.2-865.2z"/>
				<path class="st2" d="M850.1-865.2c0,1-0.8,1.9-1.9,1.9c-1,0-1.9-0.8-1.9-1.9c0-1,0.8-1.9,1.9-1.9
					C849.2-867,850.1-866.2,850.1-865.2z"/>
				<path class="st2" d="M860.9-865.2c0,1-0.8,1.9-1.9,1.9c-1,0-1.9-0.8-1.9-1.9c0-1,0.8-1.9,1.9-1.9
					C860.1-867,860.9-866.2,860.9-865.2z"/>
				<path class="st2" d="M806.8-854.4c0,1-0.8,1.9-1.9,1.9c-1,0-1.9-0.8-1.9-1.9c0-1,0.8-1.9,1.9-1.9
					C805.9-856.2,806.8-855.4,806.8-854.4z"/>
				<path class="st2" d="M817.6-854.4c0,1-0.8,1.9-1.9,1.9c-1,0-1.9-0.8-1.9-1.9c0-1,0.8-1.9,1.9-1.9
					C816.8-856.2,817.6-855.4,817.6-854.4z"/>
				<path class="st2" d="M828.4-854.4c0,1-0.8,1.9-1.9,1.9c-1,0-1.9-0.8-1.9-1.9c0-1,0.8-1.9,1.9-1.9
					C827.6-856.2,828.4-855.4,828.4-854.4z"/>
				<path class="st2" d="M839.2-854.4c0,1-0.8,1.9-1.9,1.9s-1.9-0.8-1.9-1.9c0-1,0.8-1.9,1.9-1.9S839.2-855.4,839.2-854.4z"/>
				<path class="st2" d="M850.1-854.4c0,1-0.8,1.9-1.9,1.9c-1,0-1.9-0.8-1.9-1.9c0-1,0.8-1.9,1.9-1.9
					C849.2-856.2,850.1-855.4,850.1-854.4z"/>
				<path class="st2" d="M860.9-854.4c0,1-0.8,1.9-1.9,1.9c-1,0-1.9-0.8-1.9-1.9c0-1,0.8-1.9,1.9-1.9
					C860.1-856.2,860.9-855.4,860.9-854.4z"/>
				<path class="st2" d="M806.8-843.5c0,1-0.8,1.9-1.9,1.9c-1,0-1.9-0.8-1.9-1.9s0.8-1.9,1.9-1.9
					C805.9-845.4,806.8-844.6,806.8-843.5z"/>
				<path class="st2" d="M817.6-843.5c0,1-0.8,1.9-1.9,1.9c-1,0-1.9-0.8-1.9-1.9s0.8-1.9,1.9-1.9
					C816.8-845.4,817.6-844.6,817.6-843.5z"/>
				<path class="st2" d="M828.4-843.5c0,1-0.8,1.9-1.9,1.9c-1,0-1.9-0.8-1.9-1.9s0.8-1.9,1.9-1.9
					C827.6-845.4,828.4-844.6,828.4-843.5z"/>
				<path class="st2" d="M839.2-843.5c0,1-0.8,1.9-1.9,1.9s-1.9-0.8-1.9-1.9s0.8-1.9,1.9-1.9S839.2-844.6,839.2-843.5z"/>
				<path class="st2" d="M850.1-843.5c0,1-0.8,1.9-1.9,1.9c-1,0-1.9-0.8-1.9-1.9s0.8-1.9,1.9-1.9
					C849.2-845.4,850.1-844.6,850.1-843.5z"/>
				<path class="st2" d="M860.9-843.5c0,1-0.8,1.9-1.9,1.9c-1,0-1.9-0.8-1.9-1.9s0.8-1.9,1.9-1.9
					C860.1-845.4,860.9-844.6,860.9-843.5z"/>
			</g>
			<g>
				<path class="st2" d="M1062.8-944.6c-1,0-1.9-0.8-1.9-1.9s0.8-1.9,1.9-1.9c1,0,1.9,0.8,1.9,1.9S1063.8-944.6,1062.8-944.6z"/>
				<path class="st2" d="M1062.8-933.8c-1,0-1.9-0.8-1.9-1.9c0-1,0.8-1.9,1.9-1.9c1,0,1.9,0.8,1.9,1.9
					C1064.6-934.7,1063.8-933.8,1062.8-933.8z"/>
				<path class="st2" d="M1062.8-923c-1,0-1.9-0.8-1.9-1.9c0-1,0.8-1.9,1.9-1.9c1,0,1.9,0.8,1.9,1.9
					C1064.6-923.8,1063.8-923,1062.8-923z"/>
				<path class="st2" d="M1062.8-912.2c-1,0-1.9-0.8-1.9-1.9c0-1,0.8-1.9,1.9-1.9c1,0,1.9,0.8,1.9,1.9
					C1064.6-913,1063.8-912.2,1062.8-912.2z"/>
				<path class="st2" d="M1062.8-901.4c-1,0-1.9-0.8-1.9-1.9c0-1,0.8-1.9,1.9-1.9c1,0,1.9,0.8,1.9,1.9
					C1064.6-902.2,1063.8-901.4,1062.8-901.4z"/>
				<path class="st2" d="M1062.8-890.5c-1,0-1.9-0.8-1.9-1.9c0-1,0.8-1.9,1.9-1.9c1,0,1.9,0.8,1.9,1.9
					C1064.6-891.4,1063.8-890.5,1062.8-890.5z"/>
				<path class="st2" d="M1062.8-879.7c-1,0-1.9-0.8-1.9-1.9c0-1,0.8-1.9,1.9-1.9c1,0,1.9,0.8,1.9,1.9
					C1064.6-880.5,1063.8-879.7,1062.8-879.7z"/>
				<path class="st2" d="M1062.8-868.9c-1,0-1.9-0.8-1.9-1.9c0-1,0.8-1.9,1.9-1.9c1,0,1.9,0.8,1.9,1.9
					C1064.6-869.7,1063.8-868.9,1062.8-868.9z"/>
				<path class="st2" d="M1052-944.6c-1,0-1.9-0.8-1.9-1.9s0.8-1.9,1.9-1.9c1,0,1.9,0.8,1.9,1.9S1053-944.6,1052-944.6z"/>
				<path class="st2" d="M1052-933.8c-1,0-1.9-0.8-1.9-1.9c0-1,0.8-1.9,1.9-1.9c1,0,1.9,0.8,1.9,1.9
					C1053.8-934.7,1053-933.8,1052-933.8z"/>
				<path class="st2" d="M1052-923c-1,0-1.9-0.8-1.9-1.9c0-1,0.8-1.9,1.9-1.9c1,0,1.9,0.8,1.9,1.9C1053.8-923.8,1053-923,1052-923z"
					/>
				<path class="st2" d="M1052-912.2c-1,0-1.9-0.8-1.9-1.9c0-1,0.8-1.9,1.9-1.9c1,0,1.9,0.8,1.9,1.9
					C1053.8-913,1053-912.2,1052-912.2z"/>
				<path class="st2" d="M1052-901.4c-1,0-1.9-0.8-1.9-1.9c0-1,0.8-1.9,1.9-1.9c1,0,1.9,0.8,1.9,1.9
					C1053.8-902.2,1053-901.4,1052-901.4z"/>
				<path class="st2" d="M1052-890.5c-1,0-1.9-0.8-1.9-1.9c0-1,0.8-1.9,1.9-1.9c1,0,1.9,0.8,1.9,1.9
					C1053.8-891.4,1053-890.5,1052-890.5z"/>
				<path class="st2" d="M1052-879.7c-1,0-1.9-0.8-1.9-1.9c0-1,0.8-1.9,1.9-1.9c1,0,1.9,0.8,1.9,1.9
					C1053.8-880.5,1053-879.7,1052-879.7z"/>
				<path class="st2" d="M1052-868.9c-1,0-1.9-0.8-1.9-1.9c0-1,0.8-1.9,1.9-1.9c1,0,1.9,0.8,1.9,1.9
					C1053.8-869.7,1053-868.9,1052-868.9z"/>
				<path class="st2" d="M1041.1-944.6c-1,0-1.9-0.8-1.9-1.9s0.8-1.9,1.9-1.9c1,0,1.9,0.8,1.9,1.9S1042.2-944.6,1041.1-944.6z"/>
				<path class="st2" d="M1041.1-933.8c-1,0-1.9-0.8-1.9-1.9c0-1,0.8-1.9,1.9-1.9c1,0,1.9,0.8,1.9,1.9
					C1043-934.7,1042.2-933.8,1041.1-933.8z"/>
				<path class="st2" d="M1041.1-923c-1,0-1.9-0.8-1.9-1.9c0-1,0.8-1.9,1.9-1.9c1,0,1.9,0.8,1.9,1.9
					C1043-923.8,1042.2-923,1041.1-923z"/>
				<path class="st2" d="M1041.1-912.2c-1,0-1.9-0.8-1.9-1.9c0-1,0.8-1.9,1.9-1.9c1,0,1.9,0.8,1.9,1.9
					C1043-913,1042.2-912.2,1041.1-912.2z"/>
				<path class="st2" d="M1041.1-901.4c-1,0-1.9-0.8-1.9-1.9c0-1,0.8-1.9,1.9-1.9c1,0,1.9,0.8,1.9,1.9
					C1043-902.2,1042.2-901.4,1041.1-901.4z"/>
				<path class="st2" d="M1041.1-890.5c-1,0-1.9-0.8-1.9-1.9c0-1,0.8-1.9,1.9-1.9c1,0,1.9,0.8,1.9,1.9
					C1043-891.4,1042.2-890.5,1041.1-890.5z"/>
				<path class="st2" d="M1041.1-879.7c-1,0-1.9-0.8-1.9-1.9c0-1,0.8-1.9,1.9-1.9c1,0,1.9,0.8,1.9,1.9
					C1043-880.5,1042.2-879.7,1041.1-879.7z"/>
				<path class="st2" d="M1041.1-868.9c-1,0-1.9-0.8-1.9-1.9c0-1,0.8-1.9,1.9-1.9c1,0,1.9,0.8,1.9,1.9
					C1043-869.7,1042.2-868.9,1041.1-868.9z"/>
				<path class="st2" d="M1030.3-944.6c-1,0-1.9-0.8-1.9-1.9s0.8-1.9,1.9-1.9s1.9,0.8,1.9,1.9S1031.3-944.6,1030.3-944.6z"/>
				<path class="st2" d="M1030.3-933.8c-1,0-1.9-0.8-1.9-1.9c0-1,0.8-1.9,1.9-1.9s1.9,0.8,1.9,1.9
					C1032.2-934.7,1031.3-933.8,1030.3-933.8z"/>
				<path class="st2" d="M1030.3-923c-1,0-1.9-0.8-1.9-1.9c0-1,0.8-1.9,1.9-1.9s1.9,0.8,1.9,1.9C1032.2-923.8,1031.3-923,1030.3-923
					z"/>
				<path class="st2" d="M1030.3-912.2c-1,0-1.9-0.8-1.9-1.9c0-1,0.8-1.9,1.9-1.9s1.9,0.8,1.9,1.9
					C1032.2-913,1031.3-912.2,1030.3-912.2z"/>
				<path class="st2" d="M1030.3-901.4c-1,0-1.9-0.8-1.9-1.9c0-1,0.8-1.9,1.9-1.9s1.9,0.8,1.9,1.9
					C1032.2-902.2,1031.3-901.4,1030.3-901.4z"/>
				<path class="st2" d="M1030.3-890.5c-1,0-1.9-0.8-1.9-1.9c0-1,0.8-1.9,1.9-1.9s1.9,0.8,1.9,1.9
					C1032.2-891.4,1031.3-890.5,1030.3-890.5z"/>
				<path class="st2" d="M1030.3-879.7c-1,0-1.9-0.8-1.9-1.9c0-1,0.8-1.9,1.9-1.9s1.9,0.8,1.9,1.9
					C1032.2-880.5,1031.3-879.7,1030.3-879.7z"/>
				<path class="st2" d="M1030.3-868.9c-1,0-1.9-0.8-1.9-1.9c0-1,0.8-1.9,1.9-1.9s1.9,0.8,1.9,1.9
					C1032.2-869.7,1031.3-868.9,1030.3-868.9z"/>
				<path class="st2" d="M1019.5-944.6c-1,0-1.9-0.8-1.9-1.9s0.8-1.9,1.9-1.9c1,0,1.9,0.8,1.9,1.9S1020.5-944.6,1019.5-944.6z"/>
				<path class="st2" d="M1019.5-933.8c-1,0-1.9-0.8-1.9-1.9c0-1,0.8-1.9,1.9-1.9c1,0,1.9,0.8,1.9,1.9
					C1021.4-934.7,1020.5-933.8,1019.5-933.8z"/>
				<path class="st2" d="M1019.5-923c-1,0-1.9-0.8-1.9-1.9c0-1,0.8-1.9,1.9-1.9c1,0,1.9,0.8,1.9,1.9
					C1021.4-923.8,1020.5-923,1019.5-923z"/>
				<path class="st2" d="M1019.5-912.2c-1,0-1.9-0.8-1.9-1.9c0-1,0.8-1.9,1.9-1.9c1,0,1.9,0.8,1.9,1.9
					C1021.4-913,1020.5-912.2,1019.5-912.2z"/>
				<path class="st2" d="M1019.5-901.4c-1,0-1.9-0.8-1.9-1.9c0-1,0.8-1.9,1.9-1.9c1,0,1.9,0.8,1.9,1.9
					C1021.4-902.2,1020.5-901.4,1019.5-901.4z"/>
				<path class="st2" d="M1019.5-890.5c-1,0-1.9-0.8-1.9-1.9c0-1,0.8-1.9,1.9-1.9c1,0,1.9,0.8,1.9,1.9
					C1021.4-891.4,1020.5-890.5,1019.5-890.5z"/>
				<path class="st2" d="M1019.5-879.7c-1,0-1.9-0.8-1.9-1.9c0-1,0.8-1.9,1.9-1.9c1,0,1.9,0.8,1.9,1.9
					C1021.4-880.5,1020.5-879.7,1019.5-879.7z"/>
				<path class="st2" d="M1019.5-868.9c-1,0-1.9-0.8-1.9-1.9c0-1,0.8-1.9,1.9-1.9c1,0,1.9,0.8,1.9,1.9
					C1021.4-869.7,1020.5-868.9,1019.5-868.9z"/>
			</g>
			<g>
				<path class="st2" d="M1016.8-998c0-1,0.8-1.9,1.9-1.9c1,0,1.9,0.8,1.9,1.9c0,1-0.8,1.9-1.9,1.9
					C1017.7-996.2,1016.8-997,1016.8-998z"/>
				<path class="st2" d="M1006-998c0-1,0.8-1.9,1.9-1.9s1.9,0.8,1.9,1.9c0,1-0.8,1.9-1.9,1.9S1006-997,1006-998z"/>
				<path class="st2" d="M995.2-998c0-1,0.8-1.9,1.9-1.9c1,0,1.9,0.8,1.9,1.9c0,1-0.8,1.9-1.9,1.9C996-996.2,995.2-997,995.2-998z"
					/>
				<path class="st2" d="M984.4-998c0-1,0.8-1.9,1.9-1.9c1,0,1.9,0.8,1.9,1.9c0,1-0.8,1.9-1.9,1.9C985.2-996.2,984.4-997,984.4-998z
					"/>
				<path class="st2" d="M973.6-998c0-1,0.8-1.9,1.9-1.9c1,0,1.9,0.8,1.9,1.9c0,1-0.8,1.9-1.9,1.9C974.4-996.2,973.6-997,973.6-998z
					"/>
				<path class="st2" d="M962.7-998c0-1,0.8-1.9,1.9-1.9c1,0,1.9,0.8,1.9,1.9c0,1-0.8,1.9-1.9,1.9C963.6-996.2,962.7-997,962.7-998z
					"/>
				<path class="st2" d="M951.9-998c0-1,0.8-1.9,1.9-1.9c1,0,1.9,0.8,1.9,1.9c0,1-0.8,1.9-1.9,1.9C952.7-996.2,951.9-997,951.9-998z
					"/>
				<path class="st2" d="M941.1-998c0-1,0.8-1.9,1.9-1.9c1,0,1.9,0.8,1.9,1.9c0,1-0.8,1.9-1.9,1.9C941.9-996.2,941.1-997,941.1-998z
					"/>
				<path class="st2" d="M1016.8-1008.9c0-1,0.8-1.9,1.9-1.9c1,0,1.9,0.8,1.9,1.9c0,1-0.8,1.9-1.9,1.9
					C1017.7-1007,1016.8-1007.8,1016.8-1008.9z"/>
				<path class="st2" d="M1006-1008.9c0-1,0.8-1.9,1.9-1.9s1.9,0.8,1.9,1.9c0,1-0.8,1.9-1.9,1.9S1006-1007.8,1006-1008.9z"/>
				<path class="st2" d="M995.2-1008.9c0-1,0.8-1.9,1.9-1.9c1,0,1.9,0.8,1.9,1.9c0,1-0.8,1.9-1.9,1.9
					C996-1007,995.2-1007.8,995.2-1008.9z"/>
				<path class="st2" d="M984.4-1008.9c0-1,0.8-1.9,1.9-1.9c1,0,1.9,0.8,1.9,1.9c0,1-0.8,1.9-1.9,1.9
					C985.2-1007,984.4-1007.8,984.4-1008.9z"/>
				<path class="st2" d="M973.6-1008.9c0-1,0.8-1.9,1.9-1.9c1,0,1.9,0.8,1.9,1.9c0,1-0.8,1.9-1.9,1.9
					C974.4-1007,973.6-1007.8,973.6-1008.9z"/>
				<path class="st2" d="M962.7-1008.9c0-1,0.8-1.9,1.9-1.9c1,0,1.9,0.8,1.9,1.9c0,1-0.8,1.9-1.9,1.9
					C963.6-1007,962.7-1007.8,962.7-1008.9z"/>
				<path class="st2" d="M951.9-1008.9c0-1,0.8-1.9,1.9-1.9c1,0,1.9,0.8,1.9,1.9c0,1-0.8,1.9-1.9,1.9
					C952.7-1007,951.9-1007.8,951.9-1008.9z"/>
				<path class="st2" d="M941.1-1008.9c0-1,0.8-1.9,1.9-1.9c1,0,1.9,0.8,1.9,1.9c0,1-0.8,1.9-1.9,1.9
					C941.9-1007,941.1-1007.8,941.1-1008.9z"/>
				<circle class="st2" cx="1018.7" cy="-1019.7" r="1.9"/>
				<path class="st2" d="M1006-1019.7c0-1,0.8-1.9,1.9-1.9s1.9,0.8,1.9,1.9c0,1-0.8,1.9-1.9,1.9S1006-1018.7,1006-1019.7z"/>
				<path class="st2" d="M995.2-1019.7c0-1,0.8-1.9,1.9-1.9c1,0,1.9,0.8,1.9,1.9c0,1-0.8,1.9-1.9,1.9
					C996-1017.8,995.2-1018.7,995.2-1019.7z"/>
				<path class="st2" d="M984.4-1019.7c0-1,0.8-1.9,1.9-1.9c1,0,1.9,0.8,1.9,1.9c0,1-0.8,1.9-1.9,1.9
					C985.2-1017.8,984.4-1018.7,984.4-1019.7z"/>
				<path class="st2" d="M973.6-1019.7c0-1,0.8-1.9,1.9-1.9c1,0,1.9,0.8,1.9,1.9c0,1-0.8,1.9-1.9,1.9
					C974.4-1017.8,973.6-1018.7,973.6-1019.7z"/>
				<path class="st2" d="M962.7-1019.7c0-1,0.8-1.9,1.9-1.9c1,0,1.9,0.8,1.9,1.9c0,1-0.8,1.9-1.9,1.9
					C963.6-1017.8,962.7-1018.7,962.7-1019.7z"/>
				<path class="st2" d="M951.9-1019.7c0-1,0.8-1.9,1.9-1.9c1,0,1.9,0.8,1.9,1.9c0,1-0.8,1.9-1.9,1.9
					C952.7-1017.8,951.9-1018.7,951.9-1019.7z"/>
				<path class="st2" d="M941.1-1019.7c0-1,0.8-1.9,1.9-1.9c1,0,1.9,0.8,1.9,1.9c0,1-0.8,1.9-1.9,1.9
					C941.9-1017.8,941.1-1018.7,941.1-1019.7z"/>
				<path class="st2" d="M1016.8-1030.5c0-1,0.8-1.9,1.9-1.9c1,0,1.9,0.8,1.9,1.9c0,1-0.8,1.9-1.9,1.9
					C1017.7-1028.7,1016.8-1029.5,1016.8-1030.5z"/>
				<path class="st2" d="M1006-1030.5c0-1,0.8-1.9,1.9-1.9s1.9,0.8,1.9,1.9c0,1-0.8,1.9-1.9,1.9S1006-1029.5,1006-1030.5z"/>
				<path class="st2" d="M995.2-1030.5c0-1,0.8-1.9,1.9-1.9c1,0,1.9,0.8,1.9,1.9c0,1-0.8,1.9-1.9,1.9
					C996-1028.7,995.2-1029.5,995.2-1030.5z"/>
				<path class="st2" d="M984.4-1030.5c0-1,0.8-1.9,1.9-1.9c1,0,1.9,0.8,1.9,1.9c0,1-0.8,1.9-1.9,1.9
					C985.2-1028.7,984.4-1029.5,984.4-1030.5z"/>
				<path class="st2" d="M973.6-1030.5c0-1,0.8-1.9,1.9-1.9c1,0,1.9,0.8,1.9,1.9c0,1-0.8,1.9-1.9,1.9
					C974.4-1028.7,973.6-1029.5,973.6-1030.5z"/>
				<path class="st2" d="M962.7-1030.5c0-1,0.8-1.9,1.9-1.9c1,0,1.9,0.8,1.9,1.9c0,1-0.8,1.9-1.9,1.9
					C963.6-1028.7,962.7-1029.5,962.7-1030.5z"/>
				<path class="st2" d="M951.9-1030.5c0-1,0.8-1.9,1.9-1.9c1,0,1.9,0.8,1.9,1.9c0,1-0.8,1.9-1.9,1.9
					C952.7-1028.7,951.9-1029.5,951.9-1030.5z"/>
				<path class="st2" d="M941.1-1030.5c0-1,0.8-1.9,1.9-1.9c1,0,1.9,0.8,1.9,1.9c0,1-0.8,1.9-1.9,1.9
					C941.9-1028.7,941.1-1029.5,941.1-1030.5z"/>
				<path class="st2" d="M1016.8-1041.3c0-1,0.8-1.9,1.9-1.9c1,0,1.9,0.8,1.9,1.9s-0.8,1.9-1.9,1.9
					C1017.7-1039.5,1016.8-1040.3,1016.8-1041.3z"/>
				<path class="st2" d="M1006-1041.3c0-1,0.8-1.9,1.9-1.9s1.9,0.8,1.9,1.9s-0.8,1.9-1.9,1.9S1006-1040.3,1006-1041.3z"/>
				<path class="st2" d="M995.2-1041.3c0-1,0.8-1.9,1.9-1.9c1,0,1.9,0.8,1.9,1.9s-0.8,1.9-1.9,1.9
					C996-1039.5,995.2-1040.3,995.2-1041.3z"/>
				<path class="st2" d="M984.4-1041.3c0-1,0.8-1.9,1.9-1.9c1,0,1.9,0.8,1.9,1.9s-0.8,1.9-1.9,1.9
					C985.2-1039.5,984.4-1040.3,984.4-1041.3z"/>
				<path class="st2" d="M973.6-1041.3c0-1,0.8-1.9,1.9-1.9c1,0,1.9,0.8,1.9,1.9s-0.8,1.9-1.9,1.9
					C974.4-1039.5,973.6-1040.3,973.6-1041.3z"/>
				<path class="st2" d="M962.7-1041.3c0-1,0.8-1.9,1.9-1.9c1,0,1.9,0.8,1.9,1.9s-0.8,1.9-1.9,1.9
					C963.6-1039.5,962.7-1040.3,962.7-1041.3z"/>
				<path class="st2" d="M951.9-1041.3c0-1,0.8-1.9,1.9-1.9c1,0,1.9,0.8,1.9,1.9s-0.8,1.9-1.9,1.9
					C952.7-1039.5,951.9-1040.3,951.9-1041.3z"/>
				<path class="st2" d="M941.1-1041.3c0-1,0.8-1.9,1.9-1.9c1,0,1.9,0.8,1.9,1.9s-0.8,1.9-1.9,1.9
					C941.9-1039.5,941.1-1040.3,941.1-1041.3z"/>
			</g>
			<g>
				<defs>
					<circle id="SVGID_11_" cx="903.4" cy="-785" r="50.4"/>
				</defs>
				<clipPath id="SVGID_12_">
					<use xlink:href="#SVGID_11_"  style="overflow:visible;"/>
				</clipPath>
				<g class="st28">
					<line class="st27" x1="854.4" y1="-870.1" x2="679.4" y2="-695.2"/>
					<line class="st27" x1="861.4" y1="-870.1" x2="686.5" y2="-695.2"/>
					<line class="st27" x1="868.5" y1="-870.1" x2="693.6" y2="-695.2"/>
					<line class="st27" x1="875.6" y1="-870.1" x2="700.7" y2="-695.2"/>
					<line class="st27" x1="882.7" y1="-870.1" x2="707.7" y2="-695.2"/>
					<line class="st27" x1="889.7" y1="-870.1" x2="714.8" y2="-695.2"/>
					<line class="st27" x1="896.8" y1="-870.1" x2="721.9" y2="-695.2"/>
					<line class="st27" x1="903.9" y1="-870.1" x2="729" y2="-695.2"/>
					<line class="st27" x1="911" y1="-870.1" x2="736" y2="-695.2"/>
					<line class="st27" x1="918" y1="-870.1" x2="743.1" y2="-695.2"/>
					<line class="st27" x1="925.1" y1="-870.1" x2="750.2" y2="-695.2"/>
					<line class="st27" x1="932.2" y1="-870.1" x2="757.3" y2="-695.2"/>
					<line class="st27" x1="939.3" y1="-870.1" x2="764.4" y2="-695.2"/>
					<line class="st27" x1="946.4" y1="-870.1" x2="771.4" y2="-695.2"/>
					<line class="st27" x1="953.4" y1="-870.1" x2="778.5" y2="-695.2"/>
					<line class="st27" x1="960.5" y1="-870.1" x2="785.6" y2="-695.2"/>
					<line class="st27" x1="967.6" y1="-870.1" x2="792.7" y2="-695.2"/>
					<line class="st27" x1="974.7" y1="-870.1" x2="799.7" y2="-695.2"/>
					<line class="st27" x1="981.7" y1="-870.1" x2="806.8" y2="-695.2"/>
					<line class="st27" x1="988.8" y1="-870.1" x2="813.9" y2="-695.2"/>
					<line class="st27" x1="995.9" y1="-870.1" x2="821" y2="-695.2"/>
					<line class="st27" x1="1003" y1="-870.1" x2="828" y2="-695.2"/>
					<line class="st27" x1="1010" y1="-870.1" x2="835.1" y2="-695.2"/>
					<line class="st27" x1="1017.1" y1="-870.1" x2="842.2" y2="-695.2"/>
					<line class="st27" x1="1024.2" y1="-870.1" x2="849.3" y2="-695.2"/>
					<line class="st27" x1="1031.3" y1="-870.1" x2="856.4" y2="-695.2"/>
					<line class="st27" x1="1038.4" y1="-870.1" x2="863.4" y2="-695.2"/>
					<line class="st27" x1="1045.4" y1="-870.1" x2="870.5" y2="-695.2"/>
					<line class="st27" x1="1052.5" y1="-870.1" x2="877.6" y2="-695.2"/>
					<line class="st27" x1="1059.6" y1="-870.1" x2="884.7" y2="-695.2"/>
					<line class="st27" x1="1066.7" y1="-870.1" x2="891.7" y2="-695.2"/>
					<line class="st27" x1="1073.7" y1="-870.1" x2="898.8" y2="-695.2"/>
					<line class="st27" x1="1080.8" y1="-870.1" x2="905.9" y2="-695.2"/>
					<line class="st27" x1="1087.9" y1="-870.1" x2="913" y2="-695.2"/>
					<line class="st27" x1="1095" y1="-870.1" x2="920" y2="-695.2"/>
				</g>
			</g>
			<g>
				<defs>
					
						<ellipse id="SVGID_13_" transform="matrix(0.7071 -0.7071 0.7071 0.7071 952.8782 242.8445)" cx="769.6" cy="-1028.8" rx="50.4" ry="50.4"/>
				</defs>
				<clipPath id="SVGID_14_">
					<use xlink:href="#SVGID_13_"  style="overflow:visible;"/>
				</clipPath>
				<g class="st29">
					<line class="st27" x1="720.5" y1="-1113.9" x2="545.6" y2="-938.9"/>
					<line class="st27" x1="727.6" y1="-1113.9" x2="552.7" y2="-938.9"/>
					<line class="st27" x1="734.7" y1="-1113.9" x2="559.7" y2="-938.9"/>
					<line class="st27" x1="741.7" y1="-1113.9" x2="566.8" y2="-938.9"/>
					<line class="st27" x1="748.8" y1="-1113.9" x2="573.9" y2="-938.9"/>
					<line class="st27" x1="755.9" y1="-1113.9" x2="581" y2="-938.9"/>
					<line class="st27" x1="763" y1="-1113.9" x2="588" y2="-938.9"/>
					<line class="st27" x1="770" y1="-1113.9" x2="595.1" y2="-938.9"/>
					<line class="st27" x1="777.1" y1="-1113.9" x2="602.2" y2="-938.9"/>
					<line class="st27" x1="784.2" y1="-1113.9" x2="609.3" y2="-938.9"/>
					<line class="st27" x1="791.3" y1="-1113.9" x2="616.3" y2="-938.9"/>
					<line class="st27" x1="798.3" y1="-1113.9" x2="623.4" y2="-938.9"/>
					<line class="st27" x1="805.4" y1="-1113.9" x2="630.5" y2="-938.9"/>
					<line class="st27" x1="812.5" y1="-1113.9" x2="637.6" y2="-938.9"/>
					<line class="st27" x1="819.6" y1="-1113.9" x2="644.6" y2="-938.9"/>
					<line class="st27" x1="826.6" y1="-1113.9" x2="651.7" y2="-938.9"/>
					<line class="st27" x1="833.7" y1="-1113.9" x2="658.8" y2="-938.9"/>
					<line class="st27" x1="840.8" y1="-1113.9" x2="665.9" y2="-938.9"/>
					<line class="st27" x1="847.9" y1="-1113.9" x2="673" y2="-938.9"/>
					<line class="st27" x1="855" y1="-1113.9" x2="680" y2="-938.9"/>
					<line class="st27" x1="862" y1="-1113.9" x2="687.1" y2="-938.9"/>
					<line class="st27" x1="869.1" y1="-1113.9" x2="694.2" y2="-938.9"/>
					<line class="st27" x1="876.2" y1="-1113.9" x2="701.3" y2="-938.9"/>
					<line class="st27" x1="883.3" y1="-1113.9" x2="708.3" y2="-938.9"/>
					<line class="st27" x1="890.3" y1="-1113.9" x2="715.4" y2="-938.9"/>
					<line class="st27" x1="897.4" y1="-1113.9" x2="722.5" y2="-938.9"/>
					<line class="st27" x1="904.5" y1="-1113.9" x2="729.6" y2="-938.9"/>
					<line class="st27" x1="911.6" y1="-1113.9" x2="736.6" y2="-938.9"/>
					<line class="st27" x1="918.6" y1="-1113.9" x2="743.7" y2="-938.9"/>
					<line class="st27" x1="925.7" y1="-1113.9" x2="750.8" y2="-938.9"/>
					<line class="st27" x1="932.8" y1="-1113.9" x2="757.9" y2="-938.9"/>
					<line class="st27" x1="939.9" y1="-1113.9" x2="765" y2="-938.9"/>
					<line class="st27" x1="947" y1="-1113.9" x2="772" y2="-938.9"/>
					<line class="st27" x1="954" y1="-1113.9" x2="779.1" y2="-938.9"/>
					<line class="st27" x1="961.1" y1="-1113.9" x2="786.2" y2="-938.9"/>
				</g>
			</g>
			<g>
				<defs>
					
						<ellipse id="SVGID_15_" transform="matrix(0.7071 -0.7071 0.7071 0.7071 768.9882 560.3832)" cx="1060.9" cy="-648.1" rx="86.2" ry="86.2"/>
				</defs>
				<clipPath id="SVGID_16_">
					<use xlink:href="#SVGID_15_"  style="overflow:visible;"/>
				</clipPath>
				<g class="st30">
					<line class="st27" x1="1011.9" y1="-733.1" x2="836.9" y2="-558.2"/>
					<line class="st27" x1="1018.9" y1="-733.1" x2="844" y2="-558.2"/>
					<line class="st27" x1="1026" y1="-733.1" x2="851.1" y2="-558.2"/>
					<line class="st27" x1="1033.1" y1="-733.1" x2="858.2" y2="-558.2"/>
					<line class="st27" x1="1040.2" y1="-733.1" x2="865.2" y2="-558.2"/>
					<line class="st27" x1="1047.2" y1="-733.1" x2="872.3" y2="-558.2"/>
					<line class="st27" x1="1054.3" y1="-733.1" x2="879.4" y2="-558.2"/>
					<line class="st27" x1="1061.4" y1="-733.1" x2="886.5" y2="-558.2"/>
					<line class="st27" x1="1068.5" y1="-733.1" x2="893.5" y2="-558.2"/>
					<line class="st27" x1="1075.5" y1="-733.1" x2="900.6" y2="-558.2"/>
					<line class="st27" x1="1082.6" y1="-733.1" x2="907.7" y2="-558.2"/>
					<line class="st27" x1="1089.7" y1="-733.1" x2="914.8" y2="-558.2"/>
					<line class="st27" x1="1096.8" y1="-733.1" x2="921.9" y2="-558.2"/>
					<line class="st27" x1="1103.9" y1="-733.1" x2="928.9" y2="-558.2"/>
					<line class="st27" x1="1110.9" y1="-733.1" x2="936" y2="-558.2"/>
					<line class="st27" x1="1118" y1="-733.1" x2="943.1" y2="-558.2"/>
					<line class="st27" x1="1125.1" y1="-733.1" x2="950.2" y2="-558.2"/>
					<line class="st27" x1="1132.2" y1="-733.1" x2="957.2" y2="-558.2"/>
					<line class="st27" x1="1139.2" y1="-733.1" x2="964.3" y2="-558.2"/>
					<line class="st27" x1="1146.3" y1="-733.1" x2="971.4" y2="-558.2"/>
					<line class="st27" x1="1153.4" y1="-733.1" x2="978.5" y2="-558.2"/>
					<line class="st27" x1="1160.5" y1="-733.1" x2="985.5" y2="-558.2"/>
					<line class="st27" x1="1167.5" y1="-733.1" x2="992.6" y2="-558.2"/>
					<line class="st27" x1="1174.6" y1="-733.1" x2="999.7" y2="-558.2"/>
					<line class="st27" x1="1181.7" y1="-733.1" x2="1006.8" y2="-558.2"/>
					<line class="st27" x1="1188.8" y1="-733.1" x2="1013.9" y2="-558.2"/>
					<line class="st27" x1="1195.9" y1="-733.1" x2="1020.9" y2="-558.2"/>
					<line class="st27" x1="1202.9" y1="-733.1" x2="1028" y2="-558.2"/>
					<line class="st27" x1="1210" y1="-733.1" x2="1035.1" y2="-558.2"/>
					<line class="st27" x1="1217.1" y1="-733.1" x2="1042.2" y2="-558.2"/>
					<line class="st27" x1="1224.2" y1="-733.1" x2="1049.2" y2="-558.2"/>
					<line class="st27" x1="1231.2" y1="-733.1" x2="1056.3" y2="-558.2"/>
					<line class="st27" x1="1238.3" y1="-733.1" x2="1063.4" y2="-558.2"/>
					<line class="st27" x1="1245.4" y1="-733.1" x2="1070.5" y2="-558.2"/>
					<line class="st27" x1="1252.5" y1="-733.1" x2="1077.5" y2="-558.2"/>
				</g>
			</g>
			<polygon class="st27" points="1044.5,-828.4 1044.5,-815.5 1055.7,-821.9 			"/>
			<polygon class="st27" points="958.4,-951.3 951.5,-962.2 945.5,-950.9 			"/>
			<polygon class="st27" points="975.8,-717.3 969,-728.2 962.9,-716.8 			"/>
		</g>
	</g>
	<g>
		<text transform="matrix(1 0 0 1 534.0179 -981.2051)" class="st2" style="font-family:'Montserrat-Bold'; font-size:9px;">COMPANY</text>
		<g>
			<text transform="matrix(1 0 0 1 813.16 -981.7892)" class="st2" style="font-family:'Montserrat-Bold'; font-size:7px;">About</text>
			<text transform="matrix(1 0 0 1 868.4073 -981.7892)" class="st2" style="font-family:'Montserrat-Regular'; font-size:7px;">Team</text>
			<text transform="matrix(1 0 0 1 919.3521 -981.7892)" class="st2" style="font-family:'Montserrat-Regular'; font-size:7px;">Pricing</text>
			<text transform="matrix(1 0 0 1 976.4565 -981.7892)" class="st2" style="font-family:'Montserrat-Regular'; font-size:7px;">Issues</text>
			<text transform="matrix(1 0 0 1 1030.1462 -981.7892)" class="st2" style="font-family:'Montserrat-Regular'; font-size:7px;">Log In</text>
			<line class="st31" x1="1036.9" y1="-976.2" x2="1045.3" y2="-976.2"/>
		</g>
		<g>
			<g>
				<text transform="matrix(1 0 0 1 532.2874 -865.6598)" class="st2" style="font-family:'Montserrat-Bold'; font-size:22px;">Background</text>
				<text transform="matrix(1 0 0 1 534.0178 -897.8263)" class="st2" style="font-family:'Montserrat-Bold'; font-size:22px;">Abstract </text>
				<rect x="534" y="-850" style="fill:none;" width="201.1" height="39.5"/>
				<text transform="matrix(1 0 0 1 534.0177 -844.757)"><tspan x="0" y="0" class="st2" style="font-family:'Montserrat-Regular'; font-size:7px;">Lorem ipsum dolor sit amet, consectetur adipiscing elit, </tspan><tspan x="0" y="14" class="st2" style="font-family:'Montserrat-Regular'; font-size:7px;">sed do eiusmod tempor incididunt ut labore et dolore </tspan><tspan x="0" y="28" class="st2" style="font-family:'Montserrat-Regular'; font-size:7px;">magna aliqua. </tspan></text>
			</g>
			<g>
				<g>
					
						<image style="overflow:visible;opacity:0.1;" width="438" height="205" xlink:href="A7B1781AE9C4297B.png"  transform="matrix(0.24 0 0 0.24 517.8159 -781.2454)">
					</image>
					<g>
						<path class="st2" d="M599.1-754.4h-55.8c-5.2,0-9.3-4.2-9.3-9.3l0,0c0-5.2,4.2-9.3,9.3-9.3h55.8c5.2,0,9.3,4.2,9.3,9.3l0,0
							C608.5-758.5,604.3-754.4,599.1-754.4z"/>
					</g>
				</g>
				<text transform="matrix(1 0 0 1 546.5712 -761.9372)" style="fill:#212121; font-family:'Montserrat-Medium'; font-size:7px;">GET STARTED</text>
			</g>
		</g>
	</g>
	<linearGradient id="SVGID_17_" gradientUnits="userSpaceOnUse" x1="1260.939" y1="-714.9174" x2="2449.8801" y2="-683.766">
		<stop  offset="0" style="stop-color:#FFFFFF;stop-opacity:0.2"/>
		<stop  offset="1" style="stop-color:#FFFFFF"/>
	</linearGradient>
	<path class="st32" d="M1666.6-1344.5c25.1,95.7,39.2,203.8-101,335.8c-151.6,142.7-273.9,400.2-56.8,683
		c177.3,231,441.1,308.6,755.4,286.1v-1304.9H1666.6z"/>
	<linearGradient id="SVGID_18_" gradientUnits="userSpaceOnUse" x1="937.9133" y1="-80.1499" x2="950.8602" y2="306.1031">
		<stop  offset="0" style="stop-color:#FFFFFF;stop-opacity:0.2"/>
		<stop  offset="1" style="stop-color:#FFFFFF"/>
	</linearGradient>
	<path class="st33" d="M976.4,62.6c-227.2-116.2-399.8-49.4-498.3,28c-0.5,0.4-1,0.8-1.4,1.1c20.9,4.2,41.9,9.5,62.9,15.8
		c97.9,29.7,183.6,82.7,247.2,152h621.8V31.1C1322.9,102.6,1204.5,179.2,976.4,62.6z"/>
	<linearGradient id="SVGID_19_" gradientUnits="userSpaceOnUse" x1="235.1437" y1="68.0157" x2="240.898" y2="262.2209">
		<stop  offset="0" style="stop-color:#FFFFFF;stop-opacity:0.2"/>
		<stop  offset="1" style="stop-color:#FFFFFF"/>
	</linearGradient>
	<path class="st34" d="M345,259.7c32.6-67.5,78-125.2,131.7-167.9c-153.6-31-299.3-6.2-372.9,41.7C68.1,156.8,27,205.2,0,259.7l0,0
		H345z"/>
	<linearGradient id="SVGID_20_" gradientUnits="userSpaceOnUse" x1="554.9402" y1="-67.3129" x2="567.8871" y2="318.9401">
		<stop  offset="0" style="stop-color:#FFFFFF;stop-opacity:0.2"/>
		<stop  offset="1" style="stop-color:#FFFFFF"/>
	</linearGradient>
	<path class="st35" d="M539.6,107.7c-21-6.4-42.1-11.6-62.9-15.8c-53.8,42.6-99.1,100.3-131.7,167.9h441.9
		C723.2,190.4,637.6,137.4,539.6,107.7z"/>
	<linearGradient id="SVGID_21_" gradientUnits="userSpaceOnUse" x1="559.9366" y1="58.392" x2="565.6909" y2="252.5971">
		<stop  offset="0" style="stop-color:#FFFFFF;stop-opacity:0.2"/>
		<stop  offset="1" style="stop-color:#FFFFFF"/>
	</linearGradient>
	<path class="st36" d="M539.6,107.7c-21-6.4-42.1-11.6-62.9-15.8c-53.8,42.6-99.1,100.3-131.7,167.9h441.9
		C723.2,190.4,637.6,137.4,539.6,107.7z"/>
</g>
<g id="DESIGNED_BY_FREEPIK">
	<g>
		<g id="XMLID_29_">
			<g id="XMLID_48_">
				<path id="XMLID_56_" class="st37" d="M809.7-613.7c-0.4,0.4-0.8,0.9-1.1,1.5l-0.5-0.2c-0.1-0.3-0.3-0.5-0.7-0.5
					c-0.3,0-0.6,0.3-0.5,0.7c0,0.3,0.3,0.6,0.7,0.5c0.1,0,0.1,0,0.2-0.1l0.5,0.2c-0.3,0.6-0.4,1.1-0.5,1.7l0.7,0.1
					c0.2-1.3,0.8-2.5,1.8-3.5L809.7-613.7z"/>
				<path id="XMLID_55_" class="st37" d="M815.2-616c-0.2,0-0.3,0-0.5,0l-0.1-0.6c0.2-0.1,0.3-0.4,0.3-0.6c0-0.4-0.4-0.7-0.8-0.6
					c-0.4,0-0.7,0.4-0.6,0.8c0,0.3,0.2,0.5,0.4,0.6l0.1,0.6c-0.7,0.1-1.4,0.3-2.1,0.6l0.3,0.7c0.9-0.4,1.9-0.7,3-0.7
					c0.5,0,1,0.1,1.5,0.2l0.2-0.7C816.3-616,815.8-616,815.2-616z"/>
				<path id="XMLID_54_" class="st37" d="M821.8-613.5c0.3,0,0.6-0.3,0.5-0.7c0-0.3-0.3-0.6-0.7-0.5c-0.3,0-0.5,0.3-0.5,0.6
					l-0.4,0.4c-0.4-0.4-0.9-0.8-1.4-1.1l-0.4,0.6c1.1,0.7,2,1.7,2.6,2.9l0.7-0.3c-0.3-0.6-0.6-1.1-0.9-1.5l0.4-0.4
					C821.7-613.5,821.8-613.5,821.8-613.5z"/>
				<path id="XMLID_53_" class="st37" d="M814.7-605.8c-0.4,0-0.8,0-1.2,0c-0.9,0-1.7-0.1-2.5-0.2c-0.4-0.1-0.8-0.2-1.3-0.3
					c1,1.9,3.1,3.1,5.4,3.1c2.9,0,5.3-1.9,5.9-4.5c-0.7,0.4-1.5,0.8-2.5,1.1C817.5-606.2,816.1-605.9,814.7-605.8z"/>
				<path id="XMLID_49_" class="st37" d="M815.2-614.5c-3.4,0-6.1,2.7-6.1,5.9c0,0.4,0,0.8,0.1,1.3c0.7,0.5,2.7,0.9,5.3,0.7
					c2.9-0.2,5.3-1,6.7-2.2c0-0.2,0-0.4,0-0.6C820.9-612.3,818.3-614.5,815.2-614.5z M813.1-608c-1,0-1.8-0.8-1.8-1.8
					c0-1,0.8-1.8,1.8-1.8c1,0,1.8,0.8,1.8,1.8C814.9-608.8,814.1-608,813.1-608z M817.8-608.9c-0.8,0-1.4-0.6-1.4-1.4
					c0-0.8,0.6-1.4,1.4-1.4c0.8,0,1.4,0.6,1.4,1.4C819.2-609.5,818.6-608.9,817.8-608.9z"/>
			</g>
			<path id="XMLID_46_" class="st37" d="M831.2-612.7c-0.3-0.1-0.8-0.3-1.4-0.2c-0.6,0.1-0.8,0.3-0.8,1v0.9h2.2v1.7H829v5.5h-1.9
				v-5.5h-1.3v-1.7h1.3v-0.9c0-1.7,0.9-2.8,2.6-2.8c0.6,0,1.2,0.1,1.6,0.3L831.2-612.7z"/>
			<path id="XMLID_44_" class="st37" d="M835.9-609.3c-0.2,0-0.4,0-0.5,0c-0.9,0-1.5,0.5-1.5,1.6v3.9H832v-7.2h1.9v0.8
				c0.5-0.7,1.1-1,2-1c0.4,0,0.8,0.1,1.1,0.3L835.9-609.3z"/>
			<path id="XMLID_41_" class="st37" d="M843.6-607.4c0,0.2,0,0.5,0,0.7h-5.1c0.2,1,0.9,1.5,1.8,1.5c0.6,0,1.3-0.3,1.8-0.7l1.1,1.2
				c-0.8,0.7-1.9,1.1-3.1,1.1c-2.2,0-3.7-1.5-3.7-3.8c0-2.3,1.5-3.8,3.6-3.8C842.2-611.2,843.6-609.7,843.6-607.4z M838.5-608.1h3.2
				c-0.2-0.9-0.7-1.4-1.6-1.4C839.2-609.6,838.7-609,838.5-608.1z"/>
			<path id="XMLID_38_" class="st37" d="M851.3-607.4c0,0.2,0,0.5,0,0.7h-5.1c0.2,1,0.9,1.5,1.8,1.5c0.6,0,1.3-0.3,1.8-0.7l1.1,1.2
				c-0.8,0.7-1.9,1.1-3.1,1.1c-2.2,0-3.7-1.5-3.7-3.8c0-2.3,1.5-3.8,3.6-3.8C849.8-611.2,851.3-609.7,851.3-607.4z M846.1-608.1h3.2
				c-0.2-0.9-0.7-1.4-1.6-1.4C846.9-609.6,846.3-609,846.1-608.1z"/>
			<path id="XMLID_35_" class="st37" d="M859.6-607.4c0,2.2-1.5,3.8-3.5,3.8c-1,0-1.6-0.4-2.1-0.9v3.7h-1.9V-611h1.9v0.8
				c0.5-0.6,1.2-1,2.1-1C858.1-611.2,859.6-609.6,859.6-607.4z M853.9-607.4c0,1.1,0.7,2,1.8,2c1.1,0,1.9-0.9,1.9-2
				c0-1.1-0.7-2-1.9-2C854.7-609.4,853.9-608.6,853.9-607.4z"/>
			<path id="XMLID_32_" class="st37" d="M862.7-613.4c0,0.7-0.5,1.2-1.2,1.2c-0.7,0-1.2-0.5-1.2-1.2c0-0.7,0.5-1.2,1.2-1.2
				C862.2-614.6,862.7-614.1,862.7-613.4z M862.5-603.9h-1.9v-7.2h1.9V-603.9z"/>
			<path id="XMLID_30_" class="st37" d="M865.7-608.5l2.7-2.6h2.4l-3.5,3.4l3.5,3.8h-2.4l-2.7-2.9v2.9h-1.9v-10.7h1.9V-608.5z"/>
		</g>
		<g>
			<path class="st37" d="M734.1-603.9v-1.1c-0.5,0.7-1.4,1.2-2.4,1.2c-1.8,0-3.1-1.4-3.1-3.7c0-2.3,1.3-3.7,3.1-3.7
				c1,0,1.8,0.5,2.4,1.2v-3.8h1.1v9.8H734.1z M734.1-605.8v-3.2c-0.4-0.6-1.2-1.1-2.1-1.1c-1.4,0-2.3,1.2-2.3,2.7
				c0,1.6,0.8,2.7,2.3,2.7C732.8-604.7,733.7-605.2,734.1-605.8z"/>
			<path class="st37" d="M736.6-607.5c0-2.1,1.5-3.7,3.5-3.7c2.1,0,3.4,1.7,3.4,3.8v0.3h-5.7c0.1,1.3,1,2.4,2.5,2.4
				c0.8,0,1.6-0.3,2.2-0.9l0.5,0.7c-0.7,0.7-1.7,1.1-2.8,1.1C738.1-603.7,736.6-605.2,736.6-607.5z M740-610.3
				c-1.5,0-2.3,1.3-2.3,2.4h4.6C742.4-609,741.7-610.3,740-610.3z"/>
			<path class="st37" d="M744.3-604.9l0.6-0.8c0.5,0.5,1.4,1,2.3,1c1.1,0,1.7-0.5,1.7-1.2c0-1.7-4.4-0.7-4.4-3.3c0-1.1,1-2,2.6-2
				c1.2,0,2.1,0.5,2.6,1l-0.5,0.8c-0.4-0.5-1.2-0.9-2.1-0.9c-1,0-1.6,0.5-1.6,1.1c0,1.6,4.4,0.5,4.4,3.3c0,1.2-1,2.1-2.8,2.1
				C746-603.7,745-604.1,744.3-604.9z"/>
			<path class="st37" d="M751.1-612.7c0-0.4,0.3-0.7,0.7-0.7c0.4,0,0.7,0.3,0.7,0.7c0,0.4-0.3,0.7-0.7,0.7
				C751.5-612,751.1-612.3,751.1-612.7z M751.3-603.9v-7.1h1.1v7.1H751.3z"/>
			<path class="st37" d="M754.2-602.1l0.6-0.8c0.6,0.7,1.3,1,2.3,1c1.2,0,2.3-0.6,2.3-2.1v-1c-0.5,0.7-1.4,1.3-2.4,1.3
				c-1.8,0-3.1-1.4-3.1-3.7c0-2.3,1.3-3.7,3.1-3.7c1,0,1.8,0.5,2.4,1.2v-1.1h1.1v6.9c0,2.3-1.6,3.1-3.4,3.1
				C755.9-601,755.1-601.3,754.2-602.1z M759.4-606v-3.1c-0.4-0.6-1.2-1.1-2.1-1.1c-1.4,0-2.3,1.1-2.3,2.7c0,1.6,0.8,2.7,2.3,2.7
				C758.1-604.8,759-605.3,759.4-606z"/>
			<path class="st37" d="M767.1-603.9v-4.6c0-1.2-0.6-1.6-1.6-1.6c-0.9,0-1.7,0.5-2.1,1.1v5.2h-1.1v-7.1h1.1v1
				c0.5-0.6,1.5-1.2,2.5-1.2c1.5,0,2.3,0.7,2.3,2.3v5H767.1z"/>
			<path class="st37" d="M769.6-607.5c0-2.1,1.5-3.7,3.5-3.7c2.1,0,3.4,1.7,3.4,3.8v0.3h-5.7c0.1,1.3,1,2.4,2.5,2.4
				c0.8,0,1.6-0.3,2.2-0.9l0.5,0.7c-0.7,0.7-1.7,1.1-2.8,1.1C771.1-603.7,769.6-605.2,769.6-607.5z M773.1-610.3
				c-1.5,0-2.3,1.3-2.3,2.4h4.6C775.4-609,774.7-610.3,773.1-610.3z"/>
			<path class="st37" d="M783-603.9v-1.1c-0.5,0.7-1.4,1.2-2.4,1.2c-1.8,0-3.1-1.4-3.1-3.7c0-2.3,1.3-3.7,3.1-3.7
				c1,0,1.8,0.5,2.4,1.2v-3.8h1.1v9.8H783z M783-605.8v-3.2c-0.4-0.6-1.2-1.1-2.1-1.1c-1.4,0-2.3,1.2-2.3,2.7c0,1.6,0.8,2.7,2.3,2.7
				C781.8-604.7,782.6-605.2,783-605.8z"/>
			<path class="st37" d="M789.3-603.9v-9.8h1.1v3.8c0.6-0.8,1.4-1.2,2.4-1.2c1.8,0,3.1,1.5,3.1,3.7c0,2.3-1.3,3.7-3.1,3.7
				c-1,0-1.9-0.5-2.4-1.2v1.1H789.3z M792.5-604.7c1.4,0,2.3-1.2,2.3-2.7c0-1.6-0.8-2.7-2.3-2.7c-0.9,0-1.7,0.5-2.1,1.1v3.2
				C790.8-605.2,791.7-604.7,792.5-604.7z"/>
			<path class="st37" d="M797.2-602.1c0.2,0.1,0.4,0.1,0.6,0.1c0.5,0,0.8-0.2,1.1-0.7l0.5-1.1l-3-7.1h1.2l2.4,5.8l2.3-5.8h1.2
				l-3.5,8.5c-0.4,1-1.1,1.4-2.1,1.4c-0.2,0-0.6,0-0.8-0.1L797.2-602.1z"/>
		</g>
	</g>
</g>
</svg>
